<?xml version="1.0" encoding="UTF-8"?>
<!DOCTYPE svg PUBLIC "-//W3C//DTD SVG 1.1//EN" "http://www.w3.org/Graphics/SVG/1.1/DTD/svg11.dtd">
<svg xmlns="http://www.w3.org/2000/svg" version="1.1" width="100px" height="11px" style="shape-rendering:geometricPrecision; text-rendering:geometricPrecision; image-rendering:optimizeQuality; fill-rule:evenodd; clip-rule:evenodd" xmlns:xlink="http://www.w3.org/1999/xlink">
<g><path style="opacity:0.957" fill="#d46605" d="M -0.5,-0.5 C -0.166667,-0.5 0.166667,-0.5 0.5,-0.5C 0.5,2.83333 0.5,6.16667 0.5,9.5C 16.4496,6.55472 32.4496,3.88805 48.5,1.5C 65.1638,4.16617 81.8305,6.83284 98.5,9.5C 98.5,6.16667 98.5,2.83333 98.5,-0.5C 98.8333,-0.5 99.1667,-0.5 99.5,-0.5C 99.5,3.16667 99.5,6.83333 99.5,10.5C 96.5,10.5 93.5,10.5 90.5,10.5C 76.5187,7.58356 62.352,4.91689 48,2.5C 34.6374,4.87219 21.4707,7.53885 8.5,10.5C 5.5,10.5 2.5,10.5 -0.5,10.5C -0.5,6.83333 -0.5,3.16667 -0.5,-0.5 Z"/></g>
<g><path style="opacity:1" fill="#e9852d" d="M 0.5,-0.5 C 33.1667,-0.5 65.8333,-0.5 98.5,-0.5C 98.5,2.83333 98.5,6.16667 98.5,9.5C 81.8305,6.83284 65.1638,4.16617 48.5,1.5C 32.4496,3.88805 16.4496,6.55472 0.5,9.5C 0.5,6.16667 0.5,2.83333 0.5,-0.5 Z"/></g>
</svg>
